# xmcd
#
# Track frame offsets:
#	150
#	13844
#	26126
#	38225
#	48598
#	68993
#	84723
#	97976
#	113001
#	124303
#	142130
#	150088
#	165982
#	181404
#	191585
#	213905
#
# Disc length: 3072 seconds
#
# Revision: 1
# Processed by: cddbd v1.5.2PL0 Copyright (c) Steve Scherf et al.
# Submitted via: audiograbber 1.83.01
#
DISCID=d80bfe10
DTITLE=Dr Fry's Texas Medecine Band - Texas Medecine
DYEAR=2001
DGENRE=Country
TTITLE0=Eighteen Wheels Fast Rollin'
TTITLE1=Folsom Prison Blues
TTITLE2=Oh Maria
TTITLE3=Her Goodies Arent' As Good As Mine
TTITLE4=Don't Run Away
TTITLE5=I've Been Leaning To The Wind
TTITLE6=If You Go Your Way
TTITLE7=Texas Medecine
TTITLE8=Every Little Part Of The World
TTITLE9=The Reason
TTITLE10=Spokane To Pullman
TTITLE11=Thoughtful Helpful Husband
TTITLE12=Rock The Cradle
TTITLE13=Them Rabbits Go Dancin'
TTITLE14=Blow Ye Wind
TTITLE15=Core Of My Soul
EXTD=
EXTT0=
EXTT1=
EXTT2=
EXTT3=
EXTT4=
EXTT5=
EXTT6=
EXTT7=
EXTT8=
EXTT9=
EXTT10=
EXTT11=
EXTT12=
EXTT13=
EXTT14=
EXTT15=
PLAYORDER=
